# xmcd
#
# Track frame offsets:
#	205
#	10217
#	18912
#	29090
#	38322
#	48657
#	57925
#	68190
#	81982
#	95320
#	106717
#	118325
#	129457
#	135055
#
# Disc length: 1949 seconds
#
# Revision: 3
# Processed by: cddbd v1.4PL0 Copyright (c) Steve Scherf et al.
# Submitted via: Gronk 1.4
#
DISCID=ae079b0e
DTITLE=Buck Owens - I've Got a Tiger by the Tail
DYEAR=1900
DGENRE=country
TTITLE0=I've Got a Tiger by the Tail
TTITLE1=Trouble and Me
TTITLE2=Let the Sad Times Roll On
TTITLE3=Wham Bam
TTITLE4=If You Fall Out of Love With Me
TTITLE5=Fallin' For You
TTITLE6=We're Gonna Let the Good Times Roll
TTITLE7=The Band Keeps Playin' On
TTITLE8=Streets of Laredo
TTITLE9=Cryin' Time
TTITLE10=A Maiden's Prayer
TTITLE11=Memphis
TTITLE12=This Ol' Heart (Live Version)
TTITLE13=Act Naturally (Live Version)
EXTD=
EXTT0=
EXTT1=
EXTT2=
EXTT3=
EXTT4=
EXTT5=
EXTT6=
EXTT7=
EXTT8=
EXTT9=
EXTT10=
EXTT11=
EXTT12=
EXTT13=
PLAYORDER=
